<?xml version="1.0" encoding="UTF-8" standalone="no"?>
<!-- Created with Inkscape (http://www.inkscape.org/) -->

<svg
   width="24px"
   height="27px"
   viewBox="0 0 41.680141 46.395103"
   version="1.1"
   id="svg1"
   xmlns="http://www.w3.org/2000/svg"
   xmlns:svg="http://www.w3.org/2000/svg">
  <defs
     id="defs1" />
  <g
     id="layer1"
     transform="translate(-84.174707,-111.88723)">
    <path
       id="path3"
       style="stroke-width:1.38215;paint-order:markers; fill:rgb(77, 163, 255); stroke"
       d="m 104.99824,111.88723 a 10,10 0 0 0 -9.999904,9.9999 10,10 0 0 0 9.999904,10.00043 10,10 0 0 0 9.99991,-10.00043 10,10 0 0 0 -9.99991,-9.9999 z m -4.83691,21.39094 c -6.396206,0 -11.653214,4.69615 -12.530503,10.84223 a 7,7 0 0 1 0.36897,-0.0263 7,7 0 0 1 3.737239,1.08365 26.5,26.5 0 0 1 13.262754,-3.58324 26.5,26.5 0 0 1 4.54546,0.40049 l 4.39457,-8.03879 c -1.28566,-0.43738 -2.66374,-0.67799 -4.10105,-0.67799 z m 16.15147,1.76992 -4.12585,7.54734 a 26.5,26.5 0 0 1 6.0756,2.58434 7,7 0 0 1 3.73776,-1.08572 7,7 0 0 1 0.36535,0.01 c -0.5569,-3.86143 -2.84169,-7.14881 -6.05286,-9.05578 z m -11.31301,9.04596 a 24,24 0 0 0 -12.759425,3.72949 4.6802521,6.1882114 0 0 0 -3.385323,-1.91772 4.6802521,6.1882114 0 0 0 -4.680335,6.18826 4.6802521,6.1882114 0 0 0 4.680335,6.18825 4.6802521,6.1882114 0 0 0 4.680334,-6.18825 4.6802521,6.1882114 0 0 0 -0.02015,-0.5731 20.227722,20.227722 0 0 1 8.683184,-3.42718 l 0.61857,2.81223 h 4.39456 l 0.61754,-2.80758 a 20.227722,20.227722 0 0 1 8.69197,3.44734 4.6805,6.1880002 0 0 0 -0.0274,0.54829 4.6805,6.1880002 0 0 0 4.68086,6.18773 4.6805,6.1880002 0 0 0 4.68033,-6.18773 4.6805,6.1880002 0 0 0 -4.68033,-6.18826 4.6805,6.1880002 0 0 0 -3.38171,1.92082 24,24 0 0 0 -12.79302,-3.73259 z m -2.94555,7.6693 -1.5875,6.33088 h 9.09556 l -1.5875,-6.33088 z" />
  </g>
</svg>
